4d 54 68 64 00 00 00 06 00 01 00 03 00 78 4d 54 72 6b 00 00 00 04 00 ff 2f
00 4d 54 72 6b 00 00 00 76 00 90 48 40 78 80 48 40 00 90 48 40 78 80 48 40
00 90 4f 40 78 80 4f 40 00 90 4f 40 78 80 4f 40 00 90 51 40 78 80 51 40 00
90 51 40 78 80 51 40 00 90 4f 40 81 70 80 4f 40 00 90 4d 40 78 80 4d 40 00
90 4d 40 78 80 4d 40 00 90 4c 40 78 80 4c 40 00 90 4c 40 78 80 4c 40 00 90
4a 40 78 80 4a 40 00 90 4a 40 78 80 4a 40 00 90 48 40 81 70 80 48 40 00 ff
2f 00 4d 54 72 6b 00 00 00 7d 00 90 30 40 78 80 30 40 00 90 3c 40 78 80 3c
40 00 90 40 40 78 80 40 40 00 90 3c 40 78 80 3c 40 00 90 41 40 78 80 41 40
00 90 3c 40 78 80 3c 40 00 90 40 40 78 80 40 40 00 90 3c 40 78 80 3c 40 00
90 3e 40 78 80 3e 40 00 90 3b 40 78 80 3b 40 00 90 3c 40 78 80 3c 40 00 90
39 40 78 80 39 40 00 90 35 40 78 80 35 40 00 90 37 40 78 80 37 40 00 90 30
40 81 70 80 30 40 00 ff 2f 00